<svg viewBox="0 0 96 96" xmlns="http://www.w3.org/2000/svg" xmlns:xlink="http://www.w3.org/1999/xlink" id="Icons_Worm" overflow="hidden"><path d="M85 52.345 76.488 52.345C73.9111 52.3455 71.6216 50.7004 70.8 48.258L68.386 41.083C65.8251 33.2231 58.4662 27.9291 50.2 28L50.052 28C41.7295 27.9707 34.3637 33.3795 31.9 41.329L29.7 48.182C28.907 50.6664 26.5959 52.3508 23.988 52.345L11 52.345C6.58172 52.345 3 55.9267 3 60.345 3 64.7633 6.58172 68.345 11 68.345L23.98 68.345C33.5425 68.3659 42.0163 62.189 44.923 53.079L47.123 46.227C47.4948 44.8691 48.7531 43.9463 50.16 44L50.169 44C51.5681 43.9393 52.8281 44.8411 53.222 46.185L55.636 53.361C58.6442 62.3179 67.0395 68.3506 76.488 68.345L85 68.345C89.4183 68.345 93 64.7633 93 60.345 93 55.9267 89.4183 52.345 85 52.345ZM57.013 44.909C56.7767 44.2034 56.437 43.5369 56.005 42.931 57.194 40.4218 58.6551 38.051 60.362 35.861 60.9813 36.4213 61.5523 37.0328 62.069 37.689 60.187 40.2507 58.6075 43.0214 57.362 45.946ZM66.013 46.561 66.85 49.05C64.554 50.6893 62.4301 52.5572 60.511 54.625 60.0934 53.8197 59.7374 52.984 59.446 52.125 61.4641 50.0787 63.6608 48.2167 66.01 46.561ZM70.634 54.451C71.3461 54.9637 72.1228 55.38 72.944 55.689 70.9998 57.6203 69.3271 59.807 67.972 62.189 67.2263 61.7897 66.5096 61.3386 65.827 60.839 67.1651 58.5239 68.7781 56.379 70.631 54.451ZM32.157 52.1C32.6984 51.3265 33.1279 50.4805 33.433 49.587 34.9778 52.006 36.9848 54.0962 39.339 55.738 38.8983 56.4573 38.407 57.1443 37.869 57.794 35.6316 56.2627 33.6954 54.3325 32.157 52.1ZM36.357 40.884C36.7333 40.0453 37.1842 39.2421 37.704 38.484 39.3559 40.8579 41.2253 43.0728 43.288 45.1L42.457 47.686C40.1836 45.646 38.1383 43.3653 36.357 40.884ZM25.724 56.189C26.8073 58.7488 28.2399 61.1463 29.981 63.313 29.1194 63.6162 28.2358 63.8529 27.338 64.021 25.5616 61.6791 24.1309 59.094 23.09 56.345L23.98 56.345C24.5648 56.3439 25.1483 56.2917 25.724 56.189ZM14.148 56.345 16.658 56.345C16.3671 59.0104 16.4529 61.7035 16.913 64.345L14.372 64.345C13.9479 61.6996 13.8726 59.01 14.148 56.345ZM50.133 40C49.5223 40.0092 48.9149 40.0921 48.324 40.247 48.2646 37.5082 48.4318 34.7692 48.824 32.058 49.2387 32.0233 49.658 32.004 50.082 32L50.2 32C50.591 32 50.978 32.016 51.362 32.044 50.9566 34.6932 50.7796 37.3724 50.833 40.052 50.6 40.031 50.373 40 50.133 40Z" fill="#8A796A"/></svg>